<mxfile host="app.diagrams.net" modified="2022-12-26T03:10:30.551Z" agent="5.0 (Windows NT 10.0; Win64; x64) AppleWebKit/537.36 (KHTML, like Gecko) Chrome/108.0.0.0 Safari/537.36" version="20.7.4" etag="ua7jyZuxAy3EDLEg9aY5" type="github">
  <diagram id="nCt2MH3JMU5qnf8b5OxJ" name="Page-1">
    <mxGraphModel dx="1434" dy="1856" grid="1" gridSize="10" guides="1" tooltips="1" connect="1" arrows="1" fold="1" page="1" pageScale="1" pageWidth="850" pageHeight="1100" math="0" shadow="0">
      <root>
        <mxCell id="0" />
        <mxCell id="1" parent="0" />
        <mxCell id="DisY7DZ7IWDPUWeo6XZU-4" value="" style="rounded=0;whiteSpace=wrap;html=1;fillColor=#b6dcee;strokeColor=#6c8ebf;" vertex="1" parent="1">
          <mxGeometry x="40" y="-640" width="280" height="510" as="geometry" />
        </mxCell>
        <mxCell id="DisY7DZ7IWDPUWeo6XZU-5" value="" style="rounded=0;whiteSpace=wrap;html=1;fillColor=#73d2d2;strokeColor=#82b366;" vertex="1" parent="1">
          <mxGeometry x="400" y="-640" width="280" height="520" as="geometry" />
        </mxCell>
        <mxCell id="DisY7DZ7IWDPUWeo6XZU-6" value="" style="rounded=0;whiteSpace=wrap;html=1;fillColor=#7bd88a;" vertex="1" parent="1">
          <mxGeometry x="760" y="-640" width="280" height="520" as="geometry" />
        </mxCell>
        <mxCell id="DisY7DZ7IWDPUWeo6XZU-22" style="edgeStyle=orthogonalEdgeStyle;rounded=0;jumpSize=8;orthogonalLoop=1;jettySize=auto;html=1;exitX=1;exitY=0.5;exitDx=0;exitDy=0;entryX=0;entryY=0.5;entryDx=0;entryDy=0;strokeColor=#0c9cc2;" edge="1" parent="1" source="DisY7DZ7IWDPUWeo6XZU-7" target="DisY7DZ7IWDPUWeo6XZU-10">
          <mxGeometry relative="1" as="geometry" />
        </mxCell>
        <mxCell id="DisY7DZ7IWDPUWeo6XZU-7" value="1&amp;nbsp;" style="rounded=0;whiteSpace=wrap;html=1;" vertex="1" parent="1">
          <mxGeometry x="60" y="-610" width="240" height="50" as="geometry" />
        </mxCell>
        <mxCell id="DisY7DZ7IWDPUWeo6XZU-24" style="edgeStyle=orthogonalEdgeStyle;rounded=0;jumpSize=8;orthogonalLoop=1;jettySize=auto;html=1;exitX=0.5;exitY=1;exitDx=0;exitDy=0;entryX=0.5;entryY=0;entryDx=0;entryDy=0;strokeColor=#0c9cc2;" edge="1" parent="1" source="DisY7DZ7IWDPUWeo6XZU-8" target="DisY7DZ7IWDPUWeo6XZU-9">
          <mxGeometry relative="1" as="geometry" />
        </mxCell>
        <mxCell id="DisY7DZ7IWDPUWeo6XZU-8" value="" style="rounded=0;whiteSpace=wrap;html=1;" vertex="1" parent="1">
          <mxGeometry x="60" y="-500" width="240" height="50" as="geometry" />
        </mxCell>
        <mxCell id="DisY7DZ7IWDPUWeo6XZU-26" style="edgeStyle=orthogonalEdgeStyle;rounded=0;jumpSize=8;orthogonalLoop=1;jettySize=auto;html=1;exitX=1;exitY=0.5;exitDx=0;exitDy=0;strokeColor=#0c9cc2;" edge="1" parent="1" source="DisY7DZ7IWDPUWeo6XZU-9" target="DisY7DZ7IWDPUWeo6XZU-13">
          <mxGeometry relative="1" as="geometry" />
        </mxCell>
        <mxCell id="DisY7DZ7IWDPUWeo6XZU-9" value="" style="rounded=0;whiteSpace=wrap;html=1;" vertex="1" parent="1">
          <mxGeometry x="60" y="-400" width="240" height="50" as="geometry" />
        </mxCell>
        <mxCell id="DisY7DZ7IWDPUWeo6XZU-20" style="edgeStyle=orthogonalEdgeStyle;rounded=0;orthogonalLoop=1;jettySize=auto;html=1;exitX=1;exitY=0.5;exitDx=0;exitDy=0;strokeColor=#0c9cc2;" edge="1" parent="1" source="DisY7DZ7IWDPUWeo6XZU-10" target="DisY7DZ7IWDPUWeo6XZU-12">
          <mxGeometry relative="1" as="geometry" />
        </mxCell>
        <mxCell id="DisY7DZ7IWDPUWeo6XZU-10" value="" style="rounded=0;whiteSpace=wrap;html=1;" vertex="1" parent="1">
          <mxGeometry x="420" y="-610" width="240" height="50" as="geometry" />
        </mxCell>
        <mxCell id="DisY7DZ7IWDPUWeo6XZU-23" style="edgeStyle=orthogonalEdgeStyle;rounded=0;jumpSize=8;orthogonalLoop=1;jettySize=auto;html=1;exitX=0;exitY=0.5;exitDx=0;exitDy=0;strokeColor=#0c9cc2;" edge="1" parent="1" source="DisY7DZ7IWDPUWeo6XZU-11" target="DisY7DZ7IWDPUWeo6XZU-8">
          <mxGeometry relative="1" as="geometry" />
        </mxCell>
        <mxCell id="DisY7DZ7IWDPUWeo6XZU-11" value="" style="rounded=0;whiteSpace=wrap;html=1;" vertex="1" parent="1">
          <mxGeometry x="420" y="-500" width="240" height="50" as="geometry" />
        </mxCell>
        <mxCell id="DisY7DZ7IWDPUWeo6XZU-21" style="edgeStyle=orthogonalEdgeStyle;rounded=0;orthogonalLoop=1;jettySize=auto;html=1;exitX=0.5;exitY=1;exitDx=0;exitDy=0;entryX=1;entryY=0.5;entryDx=0;entryDy=0;strokeColor=#0c9cc2;" edge="1" parent="1" source="DisY7DZ7IWDPUWeo6XZU-12" target="DisY7DZ7IWDPUWeo6XZU-11">
          <mxGeometry relative="1" as="geometry" />
        </mxCell>
        <mxCell id="DisY7DZ7IWDPUWeo6XZU-12" value="" style="rounded=0;whiteSpace=wrap;html=1;" vertex="1" parent="1">
          <mxGeometry x="780" y="-610" width="240" height="50" as="geometry" />
        </mxCell>
        <mxCell id="DisY7DZ7IWDPUWeo6XZU-27" style="edgeStyle=orthogonalEdgeStyle;rounded=0;jumpSize=8;orthogonalLoop=1;jettySize=auto;html=1;exitX=0.5;exitY=1;exitDx=0;exitDy=0;entryX=0.5;entryY=0;entryDx=0;entryDy=0;strokeColor=#0c9cc2;" edge="1" parent="1" source="DisY7DZ7IWDPUWeo6XZU-13" target="DisY7DZ7IWDPUWeo6XZU-14">
          <mxGeometry relative="1" as="geometry" />
        </mxCell>
        <mxCell id="DisY7DZ7IWDPUWeo6XZU-13" value="" style="rounded=0;whiteSpace=wrap;html=1;" vertex="1" parent="1">
          <mxGeometry x="780" y="-400" width="240" height="50" as="geometry" />
        </mxCell>
        <mxCell id="DisY7DZ7IWDPUWeo6XZU-28" style="edgeStyle=orthogonalEdgeStyle;rounded=0;jumpSize=8;orthogonalLoop=1;jettySize=auto;html=1;exitX=0;exitY=0.5;exitDx=0;exitDy=0;entryX=1;entryY=0.5;entryDx=0;entryDy=0;strokeColor=#0c9cc2;" edge="1" parent="1" source="DisY7DZ7IWDPUWeo6XZU-14" target="DisY7DZ7IWDPUWeo6XZU-15">
          <mxGeometry relative="1" as="geometry" />
        </mxCell>
        <mxCell id="DisY7DZ7IWDPUWeo6XZU-14" value="" style="rounded=0;whiteSpace=wrap;html=1;" vertex="1" parent="1">
          <mxGeometry x="780" y="-320" width="240" height="50" as="geometry" />
        </mxCell>
        <mxCell id="DisY7DZ7IWDPUWeo6XZU-15" value="" style="rounded=0;whiteSpace=wrap;html=1;" vertex="1" parent="1">
          <mxGeometry x="420" y="-320" width="240" height="50" as="geometry" />
        </mxCell>
        <mxCell id="DisY7DZ7IWDPUWeo6XZU-30" value="&lt;h1&gt;END-USER&lt;/h1&gt;" style="text;html=1;align=center;verticalAlign=middle;resizable=0;points=[];autosize=1;strokeColor=none;fillColor=none;fontStyle=1;fontFamily=Times New Roman;" vertex="1" parent="1">
          <mxGeometry x="105" y="-710" width="150" height="70" as="geometry" />
        </mxCell>
        <mxCell id="DisY7DZ7IWDPUWeo6XZU-31" value="&lt;h1&gt;MERCHANT&lt;/h1&gt;" style="text;html=1;align=center;verticalAlign=middle;resizable=0;points=[];autosize=1;strokeColor=none;fillColor=none;fontStyle=1;fontFamily=Times New Roman;" vertex="1" parent="1">
          <mxGeometry x="455" y="-710" width="170" height="70" as="geometry" />
        </mxCell>
        <mxCell id="DisY7DZ7IWDPUWeo6XZU-32" value="&lt;h1&gt;PAYME&lt;/h1&gt;" style="text;html=1;align=center;verticalAlign=middle;resizable=0;points=[];autosize=1;strokeColor=none;fillColor=none;fontStyle=1;fontFamily=Times New Roman;" vertex="1" parent="1">
          <mxGeometry x="845" y="-710" width="110" height="70" as="geometry" />
        </mxCell>
      </root>
    </mxGraphModel>
  </diagram>
</mxfile>
